<svg width="150" height="150" viewBox="0 0 150 150" fill="none" xmlns="http://www.w3.org/2000/svg">
<g clip-path="url(#clip0_602_4)">
<path d="M78.15 0C77.175 0 76.1766 0.0515625 75.1453 0.126563C48.7313 2.22187 55.7391 30.1781 55.3453 39.5016C54.8578 46.3125 53.4703 51.7078 48.7828 58.3781C43.2375 64.9453 35.475 75.5672 31.7907 86.6203C30.061 91.8188 29.2266 97.1719 30.0094 102.202C29.7146 102.42 29.4727 102.702 29.3016 103.027C27.6891 104.714 26.4891 106.791 25.1719 108.277C23.9297 109.519 22.1485 109.941 20.1891 110.77C18.2391 111.619 16.0641 112.453 14.7938 115.041C14.2313 116.217 13.936 117.483 13.9641 118.805C13.9641 120.023 14.1375 121.294 14.3063 122.147C14.6766 124.636 15.0375 126.689 14.55 128.203C12.9891 132.445 12.8203 135.352 13.8938 137.48C14.986 139.58 17.236 140.409 19.7485 141.244C24.8297 142.486 31.6875 142.092 37.111 144.975C42.8907 147.905 48.7782 149.175 53.4657 147.933C55.0825 147.57 56.5983 146.852 57.9029 145.83C59.2076 144.809 60.2682 143.509 61.0078 142.027C64.6688 142.003 68.6953 140.339 75.1219 139.927C79.4906 139.556 84.961 141.609 91.2328 141.169C91.4016 142.027 91.6219 142.411 91.9641 143.269V143.292C94.4016 148.148 98.9203 150.347 103.758 149.981C108.563 149.592 113.691 146.639 117.839 141.806C121.795 137.044 128.363 135.038 132.708 132.431C134.883 131.18 136.641 129.502 136.763 127.083C136.908 124.594 135.52 122.006 132.319 118.491V117.877L132.295 117.853C131.222 116.611 130.734 114.511 130.172 112.073C129.633 109.556 129.047 107.166 127.097 105.53C126.703 105.188 126.314 105.113 125.902 104.7C125.555 104.456 125.148 104.313 124.725 104.287C127.411 96.3 126.361 88.3688 123.623 81.2109C120.305 72.3984 114.469 64.7109 110.048 59.4375C105.066 53.1609 100.186 47.2078 100.284 38.3953C100.453 24.9375 101.77 0.065625 78.1407 0.0140625L78.15 0ZM81.4453 21.2859H81.5438C82.861 21.2859 84.0047 21.6797 85.1813 22.5094C86.3766 23.3578 87.2578 24.5859 87.9141 25.8516C88.575 27.4641 88.9219 28.7063 88.9641 30.3656C88.9641 30.2484 88.9875 30.1219 88.9875 30.0047V30.6609C88.9875 30.6094 88.9641 30.5672 88.9641 30.5156L88.9407 30.3656C88.9407 31.8844 88.6266 33.3984 88.0172 34.7859C87.7276 35.5758 87.2684 36.2927 86.6719 36.8859C86.5031 36.7922 86.3297 36.6937 86.1328 36.6187C85.4766 36.3234 84.8907 36.2297 84.3516 35.7938C83.908 35.6161 83.4501 35.4765 82.9828 35.3766C83.2781 35.0156 83.8875 34.5469 84.1313 34.1344C84.45 33.3516 84.6188 32.4984 84.6703 31.6219V31.4953C84.6836 30.6491 84.5504 29.807 84.2766 29.0063C84.0094 28.1766 83.6719 27.7547 83.1563 26.9297C82.6172 26.5125 82.1063 26.1 81.4688 26.1H81.375C80.7891 26.1 80.2735 26.2687 79.7391 26.9297C79.1526 27.5079 78.7165 28.2208 78.4688 29.0063C78.1283 29.7938 77.9375 30.6379 77.9063 31.4953V31.6219C77.9063 32.1797 77.9578 32.7422 78.0235 33.3047C76.8047 32.8922 75.2907 32.4469 74.2172 32.0344C74.1588 31.6227 74.1259 31.2079 74.1188 30.7922V30.6656C74.0713 29.0148 74.3899 27.374 75.0516 25.8609C75.5625 24.4922 76.4906 23.3156 77.7375 22.5375C78.8063 21.7359 80.1 21.2953 81.4453 21.2953V21.2859ZM62.9391 21.6562H63.1594C64.0407 21.6562 64.8469 21.9516 65.6531 22.4859C66.5766 23.2922 67.3172 24.2906 67.8047 25.3875C68.3672 26.6391 68.6813 27.9047 68.7797 29.5641V29.5875C68.8032 30.4172 68.8032 30.8625 68.7563 31.2516V31.7625L68.2453 31.9078C67.2938 32.25 66.5391 32.7375 65.775 33.1594C65.85 32.5969 65.85 32.0344 65.7985 31.4953V31.3969C65.7281 30.5719 65.5547 30.1547 65.2875 29.3203C65.0874 28.6787 64.7259 28.0992 64.2375 27.6375C63.9305 27.3638 63.5279 27.2223 63.1172 27.2437H62.9672C62.5313 27.2672 62.161 27.4875 61.8235 28.0734C61.4103 28.5487 61.1476 29.1361 61.0688 29.7609C60.8953 30.4172 60.8438 31.125 60.9188 31.8375V31.9078C60.9938 32.7656 61.1391 33.1828 61.4297 34.0078C61.6183 34.6437 61.9726 35.218 62.4563 35.6719C62.5313 35.7469 62.5828 35.7984 62.6766 35.8172C62.2407 36.1875 61.9453 36.2625 61.5844 36.675C61.336 36.8484 61.0735 37.0688 60.7547 37.1203C60.1046 36.3383 59.5316 35.4954 59.0438 34.6031C58.4457 33.2891 58.1143 31.8695 58.0688 30.4266C57.9741 29.0163 58.1394 27.6006 58.5563 26.25C58.9266 25.0312 59.5125 23.8828 60.3375 22.9078C61.1438 22.0781 61.95 21.6656 62.9485 21.6656L62.9391 21.6562ZM71.5078 32.325C73.5844 32.325 76.0782 32.7141 79.1016 34.8141C80.9344 36.0656 82.3781 36.5016 85.6969 37.7203C87.3094 38.5781 88.2328 39.4078 88.6969 40.2375V39.4078C88.9195 39.8606 89.0434 40.3555 89.0604 40.8597C89.0773 41.364 88.987 41.8661 88.7953 42.3328C88.0125 44.2875 85.5703 46.3641 82.1344 47.6063V47.6297C80.4703 48.4594 79.0078 49.7063 77.2969 50.5359C75.5672 51.3656 73.6078 52.3687 70.9735 52.2C70.0195 52.2419 69.0663 52.1002 68.1656 51.7828C67.4713 51.4142 66.8026 50.9992 66.1641 50.5406C64.9453 49.7109 63.8953 48.4641 62.3344 47.6344V47.6109H62.311C59.7938 46.0734 58.4532 44.4094 58.0125 43.1672C57.6 41.4844 57.9891 40.2422 59.236 39.4125C60.6235 38.5828 61.5985 37.725 62.236 37.3125C62.8922 36.8484 63.1407 36.675 63.3375 36.5063H63.361V36.4828C64.411 35.2125 66.0657 33.5531 68.611 32.7188C69.4594 32.4984 70.4438 32.3297 71.5125 32.3297L71.5078 32.325ZM88.9875 45.6984C91.2375 54.5625 96.4875 67.4297 99.8578 73.6547C101.639 76.9969 105.202 84.0281 106.739 92.5547C107.714 92.5313 108.788 92.6719 109.941 92.9672C113.991 82.5188 106.547 71.2875 103.153 68.1609C101.761 66.9188 101.691 66.0844 102.37 66.0844C106.059 69.4031 110.888 75.9047 112.645 83.2969C113.452 86.6391 113.653 90.2109 112.795 93.7453C113.208 93.9141 113.625 94.1344 114.066 94.1578C120.511 97.5094 122.902 100.022 121.753 103.777V103.509C121.392 103.491 120.998 103.509 120.633 103.509H120.534C121.491 100.584 119.391 98.3344 113.873 95.8453C108.159 93.3563 103.594 93.7453 102.811 98.7516C102.756 99.0344 102.724 99.3213 102.717 99.6094C102.272 99.7547 101.836 99.9234 101.4 99.9984C98.7141 101.686 97.2703 104.198 96.4453 107.423C95.6391 110.766 95.3953 114.647 95.175 119.119C95.025 121.219 94.1016 124.364 93.1688 127.561C83.7938 134.273 70.7813 137.18 59.7516 129.661C59.0391 128.442 58.2094 127.317 57.2344 126.319C56.7663 125.543 56.1831 124.843 55.5047 124.242C56.6485 124.242 57.6282 124.05 58.411 123.825C59.305 123.394 60.008 122.648 60.3844 121.73C61.0453 120.066 60.3844 117.38 58.2094 114.45C56.0672 111.548 52.4016 108.248 47.0532 104.958C43.1016 102.469 40.8797 99.5156 39.8532 96.2391C38.8266 92.8969 38.9719 89.4516 39.7547 85.9641C41.2922 79.275 45.225 72.7594 47.7422 68.6766C48.3985 68.2875 47.9625 69.5344 45.1782 74.7844C42.7078 79.4719 38.0485 90.3844 44.4141 98.8547C44.6588 92.6685 46.0329 86.5792 48.4688 80.8875C51.9797 72.9047 59.3578 58.9922 59.9438 47.9578C60.2391 48.2016 61.2891 48.8156 61.7485 49.2281C63.0938 50.0578 64.1157 51.3047 65.4375 52.1344C66.7547 53.3766 68.4141 54.2344 70.9078 54.2344C71.1516 54.2578 71.3719 54.2578 71.5875 54.2578C74.1516 54.2578 76.1578 53.4281 77.8125 52.5938C79.6172 51.7359 81.0891 50.4938 82.4485 50.0813H82.4719C85.3781 49.2516 87.6985 47.5641 88.9922 45.7078L88.9875 45.6984ZM102.661 101.686C102.905 105.441 104.813 109.472 108.178 110.297C111.839 111.127 117.136 108.22 119.358 105.516L120.675 105.464C122.648 105.413 124.289 105.516 125.967 107.128L125.991 107.152C127.284 108.394 127.898 110.47 128.433 112.622C128.972 115.134 129.384 117.502 130.997 119.283C134.02 122.578 135.023 124.945 134.977 126.413C134.878 128.044 133.8 128.873 131.85 130.12C127.917 132.638 120.938 134.564 116.494 139.941C112.631 144.553 107.925 147.066 103.767 147.384C99.6188 147.727 96.0282 146.142 93.9282 141.773L93.9047 141.75C92.5875 139.256 93.15 135.352 94.2469 131.198C95.3485 127.022 96.9328 122.78 97.1531 119.334C97.3735 114.867 97.6172 110.986 98.3485 107.977C99.1032 105.07 100.28 102.994 102.38 101.85L102.647 101.7L102.661 101.686ZM35.0578 102H35.1328C35.475 102 35.7938 102.023 36.1078 102.098C38.4516 102.441 40.5282 104.175 42.5063 106.786L48.1922 117.188L48.2157 117.211C49.7297 120.53 52.9266 123.848 55.636 127.444C58.35 131.175 60.45 134.517 60.2063 137.255V137.306C59.836 141.942 57.2016 144.455 53.175 145.388C49.1438 146.217 43.6735 145.387 38.2078 142.481C32.1563 139.139 24.9516 139.552 20.3391 138.717C18.0469 138.305 16.5328 137.447 15.8203 136.205C15.1407 134.962 15.1125 132.441 16.6032 128.513V128.494C17.3344 126.394 16.8047 123.783 16.4344 121.486C16.0922 118.992 15.9235 117.061 16.7016 115.622C17.7 113.522 19.1907 113.133 21.0188 112.28C22.8516 111.45 25.0266 111.037 26.7328 109.35H26.7563V109.327C28.3453 107.672 29.5453 105.595 30.9328 104.1C32.1094 102.83 33.3 102 35.0578 102V102ZM79.8141 45.2859C77.1 46.5281 73.9031 48.6281 70.5094 48.6281C67.1156 48.6281 64.4531 46.9734 62.5266 45.7219C61.5516 44.8734 60.7688 44.0391 60.1828 43.6219C59.1563 42.7969 59.2781 41.5266 59.7188 41.5266C60.3985 41.6203 60.525 42.375 60.961 42.7969C61.575 43.2094 62.3063 44.0391 63.2063 44.8734C65.0391 46.1156 67.4813 47.7984 70.5047 47.7984C73.5375 47.7984 77.1 46.1156 79.2469 44.8734C80.4657 44.0437 82.0266 42.7969 83.2969 41.9672C84.2719 41.1094 84.2297 40.2797 85.0266 40.2797C85.8328 40.3781 85.2516 41.1094 84.1266 42.3563C82.9782 43.2141 81.2203 44.4563 79.8094 45.2859H79.8141ZM73.05 35.3766V35.2594C73.0266 35.1328 73.1203 34.9922 73.2422 34.9406C73.6782 34.6734 74.3625 34.7672 74.8547 34.9641C75.2438 34.9641 75.8532 35.3766 75.8063 35.8125C75.7547 36.1078 75.2672 36.2297 74.9485 36.2297C74.611 36.2297 74.3625 35.9625 74.0719 35.7938C73.7532 35.6953 73.1391 35.7422 73.0453 35.3766H73.05ZM69.6047 35.3766C69.4782 35.7469 68.8922 35.6953 68.5782 35.7938C68.2828 35.9625 68.0391 36.2297 67.6969 36.2297C67.3782 36.2297 66.8672 36.1031 66.8391 35.7938C66.7969 35.3766 67.3782 34.9641 67.7719 34.9641C68.2828 34.7625 68.9156 34.6687 69.4031 34.9406C69.5016 34.9922 69.6282 35.1328 69.5766 35.2594V35.3766H69.6047Z" fill="#3F3D56"/>
</g>
<defs>
<clipPath id="clip0_602_4">
<rect width="150" height="150" fill="white"/>
</clipPath>
</defs>
</svg>
