<svg width="155" height="82" viewBox="0 0 155 82" fill="none" xmlns="http://www.w3.org/2000/svg">
<g clip-path="url(#clip0_104_256)">
<path d="M77.4999 81.4947C120.301 81.4947 154.999 63.2515 154.999 40.7474C154.999 18.2432 120.301 0 77.4999 0C34.6986 0 0.0012207 18.2432 0.0012207 40.7474C0.0012207 63.2515 34.6986 81.4947 77.4999 81.4947Z" fill="url(#paint0_radial_104_256)"/>
<path d="M77.5 78.4675C118.629 78.4675 151.971 61.5796 151.971 40.7474C151.971 19.9152 118.629 3.02734 77.5 3.02734C36.3705 3.02734 3.02856 19.9152 3.02856 40.7474C3.02856 61.5796 36.3705 78.4675 77.5 78.4675Z" fill="#6181B6"/>
<path d="M92.5758 52.9778L96.2691 33.9664C97.1168 29.6676 96.3902 26.4587 94.2106 24.4607C92.0915 22.5232 88.4587 21.5545 83.1307 21.5545H76.7128L78.5292 12.1094C78.5897 11.7461 78.5292 11.3828 78.287 11.0801C78.0448 10.7773 77.7421 10.6562 77.3788 10.6562H68.5391C67.9337 10.6562 67.4493 11.0801 67.3282 11.625L63.3927 31.7868C63.0295 29.486 62.1818 27.5485 60.7287 25.9744C58.1252 23.0076 54.0687 21.494 48.559 21.494H31.5456C30.9402 21.494 30.4558 21.9178 30.3347 22.4627L22.4032 63.3917C22.3426 63.755 22.4032 64.1182 22.6454 64.421C22.8876 64.7237 23.1903 64.8448 23.5536 64.8448H32.4538C33.0593 64.8448 33.5436 64.421 33.6647 63.8761L35.6022 54.0071H42.2017C45.6528 54.0071 48.6195 53.6438 50.8597 52.9173C53.221 52.1302 55.3401 50.8587 57.2171 49.1029C58.7307 47.7103 60.0022 46.1361 60.9709 44.4408L59.3967 52.6145C59.3362 52.9778 59.3967 53.3411 59.6389 53.6438C59.8811 53.9465 60.1838 54.0676 60.5471 54.0676H69.3868C69.9922 54.0676 70.4766 53.6438 70.5977 53.0989L74.957 30.6969H81.0116C83.6151 30.6969 84.3416 31.1813 84.5838 31.4235C84.7654 31.6051 85.1287 32.3317 84.7049 34.5719L81.1932 52.6751C81.1327 53.0383 81.1932 53.4016 81.4354 53.7044C81.6776 54.0071 81.9803 54.1282 82.3436 54.1282H91.4255C91.9704 53.9465 92.4547 53.5227 92.5758 52.9778ZM51.6468 37.2359C51.1019 40.0815 50.0726 42.1401 48.559 43.2905C47.0454 44.4408 44.563 45.0463 41.2935 45.0463H37.358L40.2037 30.3942H45.2895C49.0434 30.3942 50.557 31.1813 51.1625 31.8473C51.9496 32.816 52.1312 34.693 51.6468 37.2359V37.2359Z" fill="white"/>
<path d="M130.356 25.9745C127.753 23.0078 123.696 21.4941 118.187 21.4941H101.052C100.447 21.4941 99.9624 21.918 99.8413 22.4629L91.9098 63.3313C91.8492 63.6946 91.9098 64.0579 92.152 64.3606C92.3941 64.6633 92.6969 64.7844 93.0601 64.7844H101.96C102.566 64.7844 103.05 64.3606 103.171 63.8157L105.109 53.9467H111.708C115.159 53.9467 118.126 53.5835 120.366 52.8569C122.728 52.0698 124.847 50.7983 126.724 49.0425C128.298 47.5894 129.63 45.9547 130.599 44.1988C131.567 42.443 132.294 40.5055 132.718 38.3864C133.747 33.1189 132.96 29.0018 130.356 25.9745V25.9745ZM121.093 37.2361C120.548 40.0817 119.519 42.1403 118.005 43.2907C116.491 44.441 114.009 45.0465 110.74 45.0465H106.804L109.65 30.3944H114.736C118.489 30.3944 120.003 31.1815 120.609 31.8475C121.456 32.8162 121.638 34.6931 121.093 37.2361Z" fill="white"/>
<path d="M45.2897 29.1835C48.6802 29.1835 50.9204 29.7889 52.0708 31.0604C53.2212 32.3319 53.4634 34.451 52.8579 37.4783C52.2525 40.6267 51.0415 42.9274 49.2857 44.2594C47.5299 45.5914 44.8659 46.2574 41.2936 46.2574H35.9051L39.2351 29.1835H45.2897V29.1835ZM23.6143 63.5735H32.5145L34.6336 52.7358H42.2624C45.653 52.7358 48.3775 52.3725 50.5572 51.646C52.7368 50.9194 54.6743 49.7691 56.4907 48.0738C58.0043 46.6812 59.2152 45.1676 60.1234 43.5329C61.0316 41.8981 61.6976 40.0817 62.0609 38.0837C63.0296 33.2401 62.3031 29.4862 59.9418 26.7617C57.5805 24.0371 53.8266 22.7051 48.6802 22.7051H31.5458L23.6143 63.5735Z" fill="#000004"/>
<path d="M68.5997 11.8672H77.4394L75.3203 22.7049H83.1913C88.156 22.7049 91.5466 23.5525 93.4235 25.3084C95.3004 27.0642 95.8453 29.8493 95.1188 33.7242L91.4255 52.7356H82.4647L85.9764 34.6324C86.4002 32.5739 86.2186 31.1813 85.5526 30.4548C84.8865 29.7282 83.3729 29.3044 81.1327 29.3044H74.0488L69.5079 52.7356H60.6682L68.5997 11.8672V11.8672Z" fill="#000004"/>
<path d="M114.736 29.1835C118.126 29.1835 120.366 29.7889 121.517 31.0604C122.667 32.3319 122.909 34.451 122.304 37.4783C121.698 40.6267 120.488 42.9274 118.732 44.2594C116.976 45.5914 114.312 46.2574 110.74 46.2574H105.351L108.681 29.1835H114.736ZM93.0603 63.5735H101.961L104.08 52.7358H111.708C115.099 52.7358 117.824 52.3725 120.003 51.646C122.183 50.9194 124.12 49.7691 125.937 48.0738C127.45 46.6812 128.661 45.1676 129.569 43.5329C130.478 41.8981 131.144 40.0817 131.507 38.0837C132.476 33.2401 131.749 29.4862 129.388 26.7617C127.027 24.0371 123.273 22.7051 118.126 22.7051H100.992L93.0603 63.5735Z" fill="#000004"/>
</g>
<defs>
<radialGradient id="paint0_radial_104_256" cx="0" cy="0" r="1" gradientUnits="userSpaceOnUse" gradientTransform="translate(46.5316 14.3297) scale(101.775)">
<stop stop-color="white"/>
<stop offset="0.5" stop-color="#4C6B97"/>
<stop offset="1" stop-color="#231F20"/>
</radialGradient>
<clipPath id="clip0_104_256">
<rect width="155" height="81.7369" fill="white"/>
</clipPath>
</defs>
</svg>
