<svg width="156" height="150" viewBox="0 0 156 150" fill="none" xmlns="http://www.w3.org/2000/svg">
<path d="M78.1309 86.5967C84.7972 86.5967 90.2014 81.35 90.2014 74.8779C90.2014 68.4058 84.7972 63.1592 78.1309 63.1592C71.4645 63.1592 66.0603 68.4058 66.0603 74.8779C66.0603 81.35 71.4645 86.5967 78.1309 86.5967Z" fill="#00D8FF"/>
<path d="M78.131 101.747C63.6228 102.088 49.151 100.189 35.2564 96.122C28.8378 94.1466 22.8514 91.0348 17.5996 86.9438C15.5955 85.5463 13.9266 83.7444 12.7073 81.6617C11.4881 79.5791 10.7473 77.265 10.5359 74.8782C10.5359 67.1298 19.3039 59.536 33.9914 54.5673C48.2575 50.1645 63.1631 48.0308 78.131 48.2485C92.8991 48.0482 107.605 50.1434 121.691 54.4548C127.873 56.368 133.656 59.3294 138.773 63.2017C140.743 64.534 142.387 66.2707 143.589 68.2885C144.79 70.3064 145.52 72.5561 145.726 74.8782C145.726 82.9313 135.925 91.0923 120.136 96.1642C106.511 100.099 92.3444 101.982 78.131 101.747ZM78.131 53.8548C63.811 53.669 49.5519 55.6975 35.8889 59.8642C22.3699 64.4438 16.3104 70.7063 16.3104 74.8642C16.3104 79.2142 22.8237 86.0532 37.1249 90.8017C50.4173 94.6729 64.2576 96.4749 78.131 96.1407C91.7292 96.3768 105.285 94.5905 118.326 90.8438C133.173 86.0673 139.932 79.2188 139.932 74.8782C139.689 73.3887 139.129 71.9643 138.29 70.6952C137.451 69.4261 136.349 68.3397 135.056 67.5048C130.477 64.0695 125.311 61.445 119.794 59.7517C106.318 55.6443 92.2534 53.6536 78.131 53.8548Z" fill="#00D8FF"/>
<path d="M50.7065 133.327C48.4541 133.377 46.2283 132.846 44.256 131.789C37.342 127.917 34.9472 116.752 37.8489 101.916C41.0483 87.7178 46.5919 74.1156 54.2649 61.6361C61.4624 49.1163 70.6769 37.7951 81.5588 28.1017C86.354 23.8581 91.8857 20.473 97.8975 18.1033C100.072 17.1139 102.444 16.6011 104.845 16.6011C107.247 16.6011 109.619 17.1139 111.793 18.1033C118.982 22.1251 121.363 34.4439 118.007 50.2548C114.709 63.6825 109.309 76.5397 101.997 88.3783C95.0524 100.75 86.1281 111.973 75.5573 121.627C70.588 126.037 64.821 129.516 58.5475 131.888C56.036 132.793 53.385 133.279 50.7065 133.327ZM59.2669 64.4205C51.9478 76.3704 46.6347 89.3753 43.5269 102.947C40.8569 116.611 43.4207 124.828 47.1481 126.919C51.0107 129.089 60.3871 127.031 71.772 117.375C81.8631 108.126 90.3811 97.3839 97.0091 85.547C104.015 74.2291 109.194 61.9367 112.368 49.097C115.525 34.2142 112.797 25.1017 108.925 22.9361C107.474 22.3962 105.923 22.1545 104.371 22.2263C102.818 22.2982 101.298 22.6819 99.906 23.3533C94.5548 25.4971 89.6351 28.5406 85.3731 32.3439C74.9763 41.6288 66.1746 52.467 59.3007 64.4486L59.2669 64.4205Z" fill="#00D8FF"/>
<path d="M105.541 133.387C98.9984 133.387 90.689 129.544 82.0369 122.32C70.9643 112.539 61.5941 101.083 54.2891 88.3967C46.7123 76.089 41.2127 62.6836 37.9987 48.6888C36.6048 42.5318 36.3465 36.1835 37.2358 29.9388C37.4414 27.6223 38.168 25.3778 39.3643 23.3635C40.5605 21.3492 42.1974 19.6143 44.1595 18.281C51.339 14.2451 63.5206 18.3935 75.9533 29.1092C86.2886 38.5881 95.0653 49.5499 101.977 61.6123C109.549 73.6327 115.107 86.7445 118.442 100.458C119.895 106.841 120.12 113.43 119.103 119.892C118.861 122.275 118.091 124.579 116.846 126.647C115.601 128.714 113.91 130.495 111.89 131.869C109.95 132.913 107.758 133.437 105.541 133.387ZM59.2863 85.5748C66.2941 97.6987 75.245 108.662 85.8029 118.054C96.6615 127.125 105.275 129.075 108.978 126.961C112.841 124.781 115.69 115.884 112.754 101.489C109.538 88.3964 104.207 75.8806 96.9609 64.406C90.3647 52.8613 81.9873 42.3648 72.1197 33.281C60.4161 23.1935 50.9238 20.9388 47.0564 23.1138C45.851 24.0648 44.8618 25.2482 44.1513 26.5891C43.4408 27.93 43.0243 29.3994 42.9283 30.9045C42.1606 36.4736 42.4107 42.1306 43.667 47.6154C46.7585 60.9989 52.0331 73.8167 59.2911 85.5842L59.2863 85.5748Z" fill="#00D8FF"/>
</svg>
