<svg width="256" height="230" viewBox="0 0 256 230" fill="none" xmlns="http://www.w3.org/2000/svg">
<path d="M253.754 87.9566C253.662 87.9567 253.573 87.9286 253.498 87.8761L129.289 1.3C128.911 1.03776 128.462 0.897617 128.002 0.898402C127.542 0.899187 127.093 1.04086 126.716 1.30439L3.40174 87.8752C3.3042 87.9437 3.18349 87.9706 3.06615 87.95C2.9488 87.9294 2.84444 87.8629 2.77603 87.7653C2.70762 87.6677 2.68075 87.5469 2.70134 87.4294C2.72194 87.312 2.78831 87.2075 2.88584 87.1391L126.2 0.568243C126.728 0.199357 127.356 0.00106336 128 4.26471e-06C128.644 -0.00105483 129.273 0.19517 129.802 0.562317L254.011 87.1382C254.089 87.1929 254.148 87.2713 254.179 87.3619C254.21 87.4524 254.211 87.5505 254.183 87.6419C254.154 87.7332 254.097 87.8129 254.02 87.8696C253.943 87.9262 253.85 87.9567 253.754 87.9566L253.754 87.9566Z" fill="#3F3D56"/>
<path d="M10.4485 91.0253L128.124 3.73926L246.693 97.2361L134.187 163.988L73.1065 150.053L10.4485 91.0253Z" fill="#E6E6E6"/>
<path d="M78.2621 205.217H20.1275C19.7705 205.217 19.4169 205.147 19.087 205.011C18.7571 204.875 18.4573 204.674 18.2047 204.422C17.9521 204.17 17.7518 203.87 17.615 203.54C17.4783 203.21 17.408 202.856 17.408 202.499C17.408 202.141 17.4783 201.788 17.615 201.458C17.7518 201.127 17.9521 200.828 18.2047 200.575C18.4573 200.323 18.7571 200.123 19.087 199.986C19.4169 199.85 19.7705 199.78 20.1275 199.78H78.2621C78.619 199.78 78.9726 199.85 79.3025 199.986C79.6324 200.123 79.9323 200.323 80.1848 200.575C80.4374 200.828 80.6378 201.127 80.7745 201.458C80.9112 201.788 80.9816 202.141 80.9816 202.499C80.9816 202.856 80.9112 203.21 80.7745 203.54C80.6378 203.87 80.4374 204.17 80.1848 204.422C79.9323 204.674 79.6324 204.875 79.3025 205.011C78.9726 205.147 78.619 205.217 78.2621 205.217V205.217Z" fill="#2B627C"/>
<path d="M40.9849 193.53H20.1275C19.7705 193.53 19.4169 193.46 19.087 193.324C18.7571 193.188 18.4573 192.987 18.2047 192.735C17.9521 192.482 17.7518 192.183 17.615 191.853C17.4783 191.523 17.408 191.169 17.408 190.812C17.408 190.454 17.4783 190.101 17.615 189.771C17.7518 189.44 17.9521 189.141 18.2047 188.888C18.4573 188.636 18.7571 188.436 19.087 188.299C19.4169 188.163 19.7705 188.093 20.1275 188.093H40.9849C41.3418 188.093 41.6954 188.163 42.0253 188.299C42.3552 188.436 42.6551 188.636 42.9076 188.888C43.1602 189.141 43.3606 189.44 43.4973 189.771C43.634 190.101 43.7044 190.454 43.7044 190.812C43.7044 191.169 43.634 191.523 43.4973 191.853C43.3606 192.183 43.1602 192.482 42.9076 192.735C42.6551 192.987 42.3552 193.188 42.0253 193.324C41.6954 193.46 41.3418 193.53 40.9849 193.53Z" fill="#2B627C"/>
<path d="M129.778 139.643C129.337 139.643 128.899 139.557 128.49 139.39L55.9158 109.251V14.9122C55.9167 14.0779 56.2483 13.2782 56.8376 12.6883C57.427 12.0984 58.2261 11.7666 59.0596 11.7656H198.288C199.121 11.7666 199.92 12.0984 200.51 12.6883C201.099 13.2782 201.431 14.0779 201.432 14.9122V109.317L201.295 109.376L131.106 139.375C130.686 139.552 130.234 139.643 129.778 139.643Z" fill="white"/>
<path d="M129.779 139.867C129.308 139.868 128.841 139.777 128.405 139.598L55.6914 109.402V14.9123C55.6924 14.0185 56.0476 13.1616 56.6791 12.5296C57.3106 11.8975 58.1668 11.542 59.0598 11.541H198.288C199.181 11.542 200.037 11.8975 200.669 12.5296C201.3 13.1616 201.655 14.0185 201.656 14.9123V109.466L131.194 139.582C130.746 139.771 130.265 139.868 129.779 139.867V139.867ZM56.5896 108.801L128.747 138.767C129.42 139.04 130.174 139.036 130.844 138.755L200.758 108.872V14.9123C200.757 14.2568 200.497 13.6285 200.034 13.165C199.571 12.7015 198.943 12.4408 198.288 12.44H59.0598C58.4049 12.4408 57.7771 12.7015 57.314 13.165C56.8509 13.6285 56.5904 14.2568 56.5897 14.9123L56.5896 108.801Z" fill="#3F3D56"/>
<path d="M252.856 87.0576H252.766L201.207 109.092L130.663 139.241C130.388 139.357 130.092 139.417 129.793 139.419C129.494 139.42 129.197 139.363 128.921 139.25L56.1404 109.029L3.31447 87.0936L3.23377 87.0576H3.14386C2.31034 87.0585 1.51122 87.3903 0.921834 87.9802C0.332446 88.5701 0.000924856 89.3699 0 90.2041V226.853C0.000926043 227.688 0.332446 228.487 0.921834 229.077C1.51122 229.667 2.31034 229.999 3.14386 230H252.856C253.69 229.999 254.489 229.667 255.078 229.077C255.668 228.487 255.999 227.688 256 226.853V90.2041C255.999 89.3699 255.668 88.5701 255.078 87.9802C254.489 87.3903 253.69 87.0585 252.856 87.0576V87.0576ZM255.102 226.853C255.102 227.449 254.865 228.021 254.444 228.442C254.023 228.864 253.452 229.101 252.856 229.101H3.14386C2.54836 229.101 1.97732 228.864 1.55624 228.442C1.13515 228.021 0.898484 227.449 0.898246 226.853V90.2041C0.89906 89.6229 1.12432 89.0645 1.52692 88.6457C1.92952 88.2268 2.4783 87.9799 3.05855 87.9566L56.1404 110L128.575 140.081C129.359 140.4 130.238 140.396 131.018 140.068L201.207 110.068L252.946 87.9566C253.525 87.9817 254.073 88.2292 254.474 88.6479C254.876 89.0665 255.1 89.6239 255.102 90.2041V226.853Z" fill="#3F3D56"/>
<path d="M129.053 112.892C126.374 112.897 123.766 112.03 121.622 110.421L121.489 110.321L93.5039 88.8766C92.2078 87.8827 91.1201 86.6431 90.3027 85.2285C89.4853 83.8138 88.9543 82.2519 88.7401 80.6319C88.5258 79.0119 88.6325 77.3655 89.054 75.7868C89.4754 74.208 90.2035 72.7278 91.1965 71.4306C92.1895 70.1335 93.4281 69.0448 94.8416 68.2267C96.255 67.4087 97.8156 66.8772 99.4342 66.6628C101.053 66.4483 102.698 66.5551 104.275 66.9769C105.853 67.3987 107.332 68.1274 108.628 69.1213L126.754 83.0324L169.591 27.1201C170.584 25.8232 171.823 24.735 173.237 23.9174C174.651 23.0998 176.212 22.5689 177.83 22.3551C179.449 22.1412 181.094 22.2486 182.671 22.671C184.248 23.0934 185.727 23.8226 187.023 24.817L186.756 25.179L187.03 24.8223C189.643 26.8327 191.353 29.7987 191.785 33.0695C192.216 36.3403 191.334 39.6488 189.331 42.2691L138.945 108.035C137.78 109.551 136.281 110.777 134.566 111.62C132.85 112.462 130.964 112.897 129.053 112.892V112.892Z" fill="#2B627C"/>
</svg>
